<svg viewBox="39.89999999999998 19.600000000000023 186.20000000000002 180.6" xmlns="http://www.w3.org/2000/svg" xmlns:xlink="http://www.w3.org/1999/xlink"  overflow="visible" width="186.20000000000002px" height="180.6px"><g id="Hairstyle/Bob" stroke="none" stroke-width="1" fill="none" fill-rule="evenodd"><path d="M79,37 C86.9231015,27.5087821 108.695297,19.5506434 133.000169,20 C157.30504,20.4493566 179.861928,25.8121599 188.000169,36 C200.324059,51.4276364 225.868727,110.078642 226.000841,145 C226.093514,169.800049 216.46255,194.65995 203.000169,196 C191.920557,197.102868 176.475641,194.511355 157.000132,192.997352 L157.000016,180.610943 C175.919586,171.623228 189,152.339161 189,130 L189,130 L188.999122,101.98779 C179.477566,97.12988 170.8619,91.2471696 163.152126,84.3396588 C166.361735,89.6361155 169.848476,94.1472289 173.61311,97.8730846 C146.595804,90.2926736 125.104715,77.4496262 109.139845,59.3439424 C101.160073,75.809101 90.4464021,88.8141861 77.0000981,98.3594824 L77,130 C77,152.338858 90.0800593,171.622705 108.999214,180.610578 L108.999154,193.745766 C89.3621295,196.434364 73.6408296,201.16349 62.3845374,200.000327 C48.1616476,198.530612 40.4962363,169.795665 40,145 C39.3828789,114.164026 68.3189583,49.7950013 79,37 Z" id="Combined-Shape" fill="#2c1b18" /></g></svg>
