<svg viewBox="39.89999999999998 14 201.59999999999997 253.40000000000006" xmlns="http://www.w3.org/2000/svg" xmlns:xlink="http://www.w3.org/1999/xlink"  overflow="visible" width="201.59999999999997px" height="253.40000000000006px"><g id="Hairstyle/Straight Curvy" stroke="none" stroke-width="1" fill="none" fill-rule="evenodd"><path d="M90,28 C109.904677,13.2403583 143.442051,8.98170328 155.047127,26.5221924 C163.696621,22.6805652 176.518413,26.1815193 186,35 C195.565732,44.4156112 203.20059,65.1998818 198.656587,82.206592 C198.762179,83.4709859 198.815476,84.7499388 198.815476,86.0408963 L198.81538,107.891574 C197.933901,102.918283 193.989239,99.0033044 189.000809,98.1660527 L189,98 L189,98 C182.96334,76.4623862 165.226514,66.5783743 154.426942,56.7746242 C137.537945,75.673255 84.8230783,75.7388921 67,113 L67,113 L67,123 C67,129.018777 71.4310943,134.002616 77.2090181,134.867253 C78.9518263,155.114813 91.4692242,172.28298 108.999984,180.610943 L109,181 L109,181 C111.930371,224.855112 102.358462,279.797432 40,263 C53.642322,255.016339 60.8468043,203.781043 61.001396,172.286981 L61,84.046252 C61,80.5176475 61.3973049,77.0818385 62.1496203,73.7811194 C65.2010611,53.7368957 76.7729938,37.8125737 90,28 Z M198.81538,125.108426 L198.815476,126.47039 C198.815476,142.298552 202.572711,157.900645 209.7782,171.993609 L236.726668,224.701177 C243.690155,238.320818 241.645331,254.175364 232.789213,265.470883 C229.966979,228.289531 198.903958,199 161,199 L161,199 L157,198.999002 L157.001014,180.610469 C174.531251,172.282329 187.048207,155.114429 188.791415,134.867236 C193.878344,134.105955 197.921578,130.151245 198.81538,125.108426 Z" id="Hair" fill="#2c1b18" /><path d="M154.426942,56.7746242 C165.226514,66.5783743 182.96334,76.4623862 189,98 L188.959163,97.8569124 C182.884245,79.2637728 165.205266,72.6964956 154.429684,64.2083647 C137.535357,80.6069148 84.8226408,80.6646674 67,113 L67,113 C84.6310234,76.140404 136.405924,75.6789885 153.872441,57.3801299 Z" id="Shadow" fill-opacity=".16" fill="#000"/></g></svg>
