<svg viewBox="48.30000000000001 2.799999999999983 169.4 138.59999999999997" xmlns="http://www.w3.org/2000/svg" xmlns:xlink="http://www.w3.org/1999/xlink"  overflow="visible" width="169.4px" height="138.59999999999997px"><defs><path d="M86,0 C115.850571,0 167.918252,44.1482824 168.000151,91.3235294 C168.044199,116.801277 158.377483,132.360101 139,138 C145.115031,82.1102588 107.402843,69.4138942 83.9702592,55.8163276 C60.5120434,69.4137349 22.8617466,82.1099083 29.0002187,138 C9.62244645,132.999216 -0.0442710553,117.440393 6.61437384e-05,91.3235294 C0.0804892181,44.1482783 52.0737254,0 82.0002187,0 C82.6683765,0 83.3326638,0.0296272423 83.9914566,0.0880458459 C84.6556388,0.0296490547 85.3257817,0 86,0 Z" id="hairstyleturban-path-1"/></defs><g id="Hairstyle/Turban" stroke="none" stroke-width="1" fill="none" fill-rule="evenodd"><g id="Turban" transform="translate(49.000000, 3.000000)"><path d="M84,54 C116.5848,54 143,68.7746033 143,87 C143,89.579787 142.470742,92.0904336 141.469644,94.4998241 C135.397224,79.8874705 111.971815,69 84,69 C56.0275463,69 32.6017061,79.8879678 26.5303563,94.5001759 C25.5294049,92.0911291 25,89.5801444 25,87 C25,68.7746033 51.4151998,54 84,54 Z" id="Band" fill="#EDECE3"/><g><mask id="hairstyleturban-mask-2" fill="#fff"><use xlink:href="#hairstyleturban-path-1"/></mask><use id="Turban-Mask" fill="#124C74" xlink:href="#hairstyleturban-path-1"/></g><path d="M6.61437381e-05,94.0294118 L0.0121930112,93.0944187 C0.401826662,118.14477 10.0645019,133.113297 29.0002187,138 L29.0002187,138 C9.62244645,133.289117 -0.0442710553,118.632254 6.61437381e-05,94.0294118 Z M100.000219,47.135763 C88.8767709,68.5104523 28.8779193,69.0015399 28.3370145,126.226222 C28.4044891,64.7592437 88.8329556,64.3235487 100.000219,41.5441176 C102.669276,36.5679117 104.14065,31.8372142 104.645488,27.4709975 C105.389794,33.1969843 104.125686,39.8901052 100.000219,47.135763 Z" id="Shadow" fill-opacity=".16" fill="#000"/></g></g></svg>
