<svg viewBox="74.89999999999998 34.99999999999997 116.19999999999995 64.39999999999998" xmlns="http://www.w3.org/2000/svg" xmlns:xlink="http://www.w3.org/1999/xlink"  overflow="visible" width="116.19999999999995px" height="64.39999999999998px"><g id="Hairstyle/The Caesar + Side Part" stroke="none" stroke-width="1" fill="none" fill-rule="evenodd"><path d="M133,35 C190,34.2743628 190.719178,87.7019177 190,98 C189.653144,99.488448 188.327244,99.2226722 188,98 C188.46274,96.445722 184.704055,69.2480719 175,62 C173.24076,60.7763806 167.752966,59.6102528 160.359342,58.7391156 L164,50 L157.01872,58.3785401 C149.986673,57.6847668 141.657642,57.2514723 133.312614,57.245568 C114.008216,57.2319099 94.618222,59.4833872 91,62 C81.2959449,69.2480719 77.5372601,96.445722 78,98 C77.6727559,99.2226722 76.3468563,99.488448 76,98 C75.2808215,87.7019177 76,35.7256372 133,35 Z" id="Caesar" fill="#2c1b18" /></g></svg>
