<svg viewBox="5.680000000000007 6.394736842105267 130.64000000000004 44.052631578947356" xmlns="http://www.w3.org/2000/svg" xmlns:xlink="http://www.w3.org/1999/xlink"  overflow="visible" width="130.64000000000004px" height="44.052631578947356px"><g id="Accesories/Prescription 02" stroke="none" stroke-width="1" fill="none" fill-rule="evenodd"><g id="Wayfarers" transform="translate(6.000000, 7.000000)"><path d="M94.5299306,2 L97.5,2 C118.790455,2 126.354091,7.09629136 127.045455,7.77156439 C128.679318,7.77156439 130,9.06150904 130,10.6573466 L130,13.5431288 C130,15.0819721 128.771968,16.3363819 127.219267,16.4240198 L126.612705,16.4391531 C125.44626,16.4830476 122.230186,16.7150617 120.820725,17.9414221 C120.960175,19.434022 121,20.9643151 121,22.5 C121,34.5686429 110.721275,43 96,43 L93.2421498,43 C79.3147125,43 71,35.3359286 71,22.5 C71,20.9522934 71.0404506,19.4100634 71.1814034,17.906131 L69.8004908,17.3608351 C69.5558969,17.2641292 69.0281396,17.090392 68.2963505,16.9099044 C66.256272,16.4067419 64.1589087,16.253569 62.3040836,16.6343084 C61.6235903,16.7739931 60.9922286,16.9836085 60.4128127,17.266732 L58.8308166,18.0394014 C58.9619021,19.5011097 59,20.9979759 59,22.5 C59,34.5686429 48.7212748,43 34,43 L31.2421498,43 C17.3147125,43 9,35.3359286 9,22.5 C9,21.6610668 9.01188509,20.8237427 9.0452193,19.9932548 C8.93099603,19.9593697 8.86363636,19.7504239 8.86363636,19.3146932 C8.86363636,16.8880127 4.68515214,16.5019499 3.35563443,16.4405308 L2.95454545,16.428911 C1.32363636,16.428911 0,15.1389663 0,13.5431288 L0,10.6573466 C0,9.06150904 1.32363636,7.77156439 2.95454545,7.77156439 L3.07093469,7.66991985 C4.26044178,6.70687939 11.8996241,2.09744476 31.8653976,2.00151937 L35.4700694,2 C36.7306767,2 37.9242203,2.0341353 39.0542384,2.10047223 C51.4173567,2.52253128 54.909731,4.23413961 59.8502273,6.6518809 L60.2689233,6.85850899 L60.5639301,6.95819168 C61.3005076,7.19702359 63.0662164,7.70151679 65.0790606,7.76579519 C67.2462948,7.67278567 69.1000195,7.08540191 69.641698,6.89719767 L70.3244551,6.57039601 C75.33305,4.21287789 80.4386483,2.71580366 89.5614746,2.20060541 C91.0895989,2.06864066 92.7423376,2 94.5299306,2 Z M36.1732992,8.00192643 L32.3853606,8 C13.5815608,8 13.0174468,14.4367119 13.0005234,22.7271501 L13,23.5015498 C13,30.5719428 16.116254,39 30.9709365,39 L34,39 C46.3649085,39 55,32.6270373 55,23.5015498 L54.993687,21.7414887 C54.9091306,14.0134217 53.6920357,8.12378857 36.1732992,8.00192643 L36.1732992,8.00192643 Z M97.6146394,8 L94.3853606,8 C75.5815608,8 75.0174468,14.4367119 75.0005234,22.7271501 L75,23.5015498 C75,30.5719428 78.1194833,39 92.9709365,39 L96,39 C108.364909,39 117,32.6270373 117,23.5015498 L116.993351,21.711307 C116.905012,13.9167947 115.643025,8 97.6146394,8 Z" id="Shape" fill-opacity=".16" fill="#000"/><path d="M35.4700694,0 C57.1829942,0 59,10.127 59,20.5 C59,32.5686429 48.7212748,41 34,41 L31.2421498,41 C17.3147125,41 9,33.3359286 9,20.5 C9,10.127 10.8170058,0 32.5299306,0 L35.4700694,0 Z M35.6146394,6 L32.3853606,6 C13,6 13,12.8410159 13,21.5015498 C13,28.5719428 16.116254,37 30.9709365,37 L34,37 C46.3649085,37 55,30.6270373 55,21.5015498 L54.9994766,20.7271501 C54.9825532,12.4367119 54.4184392,6 35.6146394,6 Z" id="Left" fill="#252C2F" fill-rule="nonzero"/><path d="M97.4700694,0 C119.182994,0 121,10.127 121,20.5 C121,32.5686429 110.721275,41 96,41 L93.2421498,41 C79.3147125,41 71,33.3359286 71,20.5 C71,10.127 72.8170058,0 94.5299306,0 L97.4700694,0 Z M97.6146394,6 L94.3853606,6 C75.5815608,6 75.0174468,12.4367119 75.0005234,20.7271501 L75,21.5015498 C75,28.5719428 78.1194833,37 92.9709365,37 L96,37 C108.364909,37 117,30.6270373 117,21.5015498 C117,12.8410159 117,6 97.6146394,6 Z" id="Right" fill="#252C2F" fill-rule="nonzero"/><path d="M2.95454545,5.77156439 C3.64590909,5.09629136 11.2095455,0 32.5,0 C50.3513636,0 54.1302273,1.85267217 59.8502273,4.6518809 L60.2689233,4.85850899 C60.6666014,4.99901896 62.7002447,5.68982981 65.0790606,5.76579519 C67.2462948,5.67278567 69.1000195,5.08540191 69.641698,4.89719767 C76.1703915,1.7220864 82.5610971,0 97.5,0 C118.790455,0 126.354091,5.09629136 127.045455,5.77156439 C128.679318,5.77156439 130,7.06150904 130,8.65734659 L130,11.5431288 C130,13.1389663 128.679318,14.428911 127.045455,14.428911 C127.045455,14.428911 120.143997,14.428911 120.143997,17.3146932 C120.143997,20.2004754 118.181818,13.1389663 118.181818,11.5431288 L118.181818,8.73240251 C114.578575,7.35340151 108.128411,4.78617535 97.5,4.78617535 C85.6584651,4.78617535 79.7610984,6.88602813 74.7022935,8.97112368 L74.7588636,9.10752861 L74.7563667,11.0937608 L72.5391666,16.4436339 L69.8004908,15.3608351 C69.5558969,15.2641292 69.0281396,15.090392 68.2963505,14.9099044 C66.256272,14.4067419 64.1589087,14.253569 62.3040836,14.6343084 C61.6235903,14.7739931 60.9922286,14.9836085 60.4128127,15.266732 L57.7704824,16.5578701 L55.1266751,11.3962031 L55.2440909,9.10175705 L55.3248203,8.90683855 C50.9620526,6.87386374 46.9392639,4.78617535 32.5,4.78617535 C21.8721459,4.78617535 15.422131,7.3524397 11.8181818,8.7314671 L11.8181818,11.5431288 C11.8181818,13.1389663 8.86363636,20.2004754 8.86363636,17.3146932 C8.86363636,14.428911 2.95454545,14.428911 2.95454545,14.428911 C1.32363636,14.428911 0,13.1389663 0,11.5431288 L0,8.65734659 C0,7.06150904 1.32363636,5.77156439 2.95454545,5.77156439 Z" id="Stuff" fill="#252C2F" fill-rule="nonzero"/></g></g></svg>
